<?xml version="1.0" encoding="utf-8"?>
<!DOCTYPE svg PUBLIC "-//W3C//DTD SVG 1.1//EN" "http://www.w3.org/Graphics/SVG/1.1/DTD/svg11.dtd">
<!-- Generated by graphviz version 6.0.2 (20221011.1828)
 -->
<!-- Title: stones Pages: 1 -->
<svg height="238pt" viewBox="0.00 0.00 664.5 238.0" width="665pt" xmlns="http://www.w3.org/2000/svg" xmlns:xlink="http://www.w3.org/1999/xlink">
 <g class="graph" id="graph0" transform="scale(1 1) rotate(0) translate(4 184)">
  <title>
   stones
  </title>
  <polygon fill="white" points="-4,4 -4,-184 610.5,-184 610.5,4 -4,4" stroke="none"/>
  <!-- Codeforces -->
  <g class="node" id="node1">
   <title>
    Codeforces
   </title>
   <g id="a_node1">
    <a target="_parent" xlink:href="https://codeforces.com/problemset" xlink:title="Codeforces(14)">
     <polygon fill="orangered" points="316,-180 196,-180 196,-144 316,-144 316,-180" stroke="lightgrey"/>
     <text fill="white" font-family="Microsoft YaHei" font-size="14.00" text-anchor="middle" x="256" y="-158.3">
      Codeforces(14)
     </text>
    </a>
   </g>
  </g>
  <!-- 基础题 -->
  <g class="node" id="node2">
   <title>
    基础题
   </title>
   <polygon fill="lightslategray" points="74,-108 0,-108 0,-72 74,-72 74,-108" stroke="lightgrey"/>
   <text fill="white" font-family="Microsoft YaHei" font-size="12.00" text-anchor="middle" x="37" y="-86.9">
    基础题(10)
   </text>
  </g>
  <!-- Codeforces&#45;&gt;基础题 -->
  <g class="edge" id="edge1">
   <title>
    Codeforces-&gt;基础题
   </title>
   <path d="M197.28,-143.91C165.97,-134.59 126.62,-122.54 83.62,-108.13" fill="none" stroke="lightgrey"/>
   <polygon fill="lightgrey" points="84.69,-104.79 74.09,-104.91 82.45,-111.43 84.69,-104.79" stroke="lightgrey"/>
  </g>
  <!-- Maths -->
  <g class="node" id="node3">
   <title>
    Maths
   </title>
   <polygon fill="lightslategray" points="159.5,-108 92.5,-108 92.5,-72 159.5,-72 159.5,-108" stroke="lightgrey"/>
   <text fill="white" font-family="Microsoft YaHei" font-size="12.00" text-anchor="middle" x="126" y="-86.9">
    Maths(1)
   </text>
  </g>
  <!-- Codeforces&#45;&gt;Maths -->
  <g class="edge" id="edge2">
   <title>
    Codeforces-&gt;Maths
   </title>
   <path d="M224.2,-143.88C206.89,-134.55 185.28,-122.92 166.74,-112.94" fill="none" stroke="lightgrey"/>
   <polygon fill="lightgrey" points="168.39,-109.85 157.92,-108.19 165.07,-116.01 168.39,-109.85" stroke="lightgrey"/>
  </g>
  <!-- 数论&#45;扩展欧几里得算法 -->
  <g class="node" id="node4">
   <title>
    数论-扩展欧几里得算法
   </title>
   <polygon fill="lightslategray" points="334,-108 178,-108 178,-72 334,-72 334,-108" stroke="lightgrey"/>
   <text fill="white" font-family="Microsoft YaHei" font-size="12.00" text-anchor="middle" x="256" y="-86.9">
    数论-扩展欧几里得算法(1)
   </text>
  </g>
  <!-- Codeforces&#45;&gt;数论&#45;扩展欧几里得算法 -->
  <g class="edge" id="edge3">
   <title>
    Codeforces-&gt;数论-扩展欧几里得算法
   </title>
   <path d="M256,-143.7C256,-135.98 256,-126.71 256,-118.11" fill="none" stroke="lightgrey"/>
   <polygon fill="lightgrey" points="259.5,-118.1 256,-108.1 252.5,-118.1 259.5,-118.1" stroke="lightgrey"/>
  </g>
  <!-- 动态规划&#45;树形DP -->
  <g class="node" id="node6">
   <title>
    动态规划-树形DP
   </title>
   <polygon fill="lightslategray" points="477.5,-108 352.5,-108 352.5,-72 477.5,-72 477.5,-108" stroke="lightgrey"/>
   <text fill="white" font-family="Microsoft YaHei" font-size="12.00" text-anchor="middle" x="415" y="-86.9">
    动态规划-树形DP(1)
   </text>
  </g>
  <!-- Codeforces&#45;&gt;动态规划&#45;树形DP -->
  <g class="edge" id="edge5">
   <title>
    Codeforces-&gt;动态规划-树形DP
   </title>
   <path d="M294.9,-143.88C316.63,-134.31 343.9,-122.3 366.96,-112.15" fill="none" stroke="lightgrey"/>
   <polygon fill="lightgrey" points="368.49,-115.3 376.23,-108.07 365.67,-108.89 368.49,-115.3" stroke="lightgrey"/>
  </g>
  <!-- 模拟题 -->
  <g class="node" id="node7">
   <title>
    模拟题
   </title>
   <polygon fill="lightslategray" points="562.5,-108 495.5,-108 495.5,-72 562.5,-72 562.5,-108" stroke="lightgrey"/>
   <text fill="white" font-family="Microsoft YaHei" font-size="12.00" text-anchor="middle" x="529" y="-86.9">
    模拟题(1)
   </text>
  </g>
  <!-- Codeforces&#45;&gt;模拟题 -->
  <g class="edge" id="edge6">
   <title>
    Codeforces-&gt;模拟题
   </title>
   <path d="M316.04,-149.95C360.79,-141.1 423.42,-127.4 485.66,-108.2" fill="none" stroke="lightgrey"/>
   <polygon fill="lightgrey" points="486.75,-111.53 495.24,-105.2 484.65,-104.85 486.75,-111.53" stroke="lightgrey"/>
  </g>
  <!-- 1478D -->
  <g class="node" id="node5">
   <title>
    1478D
   </title>
   <g id="a_node5">
    <a target="_parent" xlink:href="https://codeforces.com/problemset/problem/1477/A" xlink:title="1478D. Nezzar and Board">
     <polygon fill="none" points="337,-36 175,-36 175,0 337,0 337,-36" stroke="orange"/>
     <text font-family="Microsoft YaHei" font-size="12.00" text-anchor="middle" x="256" y="-14.9">
      1478D. Nezzar and Board
     </text>
    </a>
   </g>
  </g>
  <!-- 数论&#45;扩展欧几里得算法&#45;&gt;1478D -->
  <g class="edge" id="edge4">
   <title>
    数论-扩展欧几里得算法-&gt;1478D
   </title>
   <path d="M256,-71.7C256,-63.98 256,-54.71 256,-46.11" fill="none" stroke="lightgrey"/>
   <polygon fill="lightgrey" points="259.5,-46.1 256,-36.1 252.5,-46.1 259.5,-46.1" stroke="lightgrey"/>
  </g>
  <!-- 1493B -->
  <g class="node" id="node8">
   <title>
    1493B
   </title>
   <g id="a_node8">
    <a target="_parent" xlink:href="https://codeforces.com/problemset/problem/1493/B" xlink:title="1493B. Planet Lapituletti">
     <polygon fill="none" points="606.5,-36 451.5,-36 451.5,0 606.5,0 606.5,-36" stroke="orange"/>
     <text font-family="Microsoft YaHei" font-size="12.00" text-anchor="middle" x="529" y="-14.9">
      1493B. Planet Lapituletti
     </text>
    </a>
   </g>
  </g>
  <!-- 模拟题&#45;&gt;1493B -->
  <g class="edge" id="edge7">
   <title>
    模拟题-&gt;1493B
   </title>
   <path d="M529,-71.7C529,-63.98 529,-54.71 529,-46.11" fill="none" stroke="lightgrey"/>
   <polygon fill="lightgrey" points="532.5,-46.1 529,-36.1 525.5,-46.1 532.5,-46.1" stroke="lightgrey"/>
  </g>
  <g class="key">
   <defs>
    <filter height="1.2" id="solid" width="1.2" x="-0.1" y="-0.1">
     <feFlood flood-color="#ccff90" result="bg"/>
     <feMerge>
      <feMergeNode in="bg"/>
      <feMergeNode in="SourceGraphic"/>
     </feMerge>
    </filter>
   </defs>
   <text filter="url(#solid)" font-family="Microsoft YaHei" font-size="10.00" text-anchor="middle" x="529.0" y="5.0">
    时间模拟
   </text>
  </g>
 </g>
</svg>